<?xml version="1.0" encoding="UTF-8"?>
<svg width="794px" height="200px" viewBox="0 0 794 200" version="1.1" xmlns="http://www.w3.org/2000/svg" xmlns:xlink="http://www.w3.org/1999/xlink">
    <!-- Generator: Sketch 52.2 (67145) - http://www.bohemiancoding.com/sketch -->
    <title>FMP Green - Green TLM</title>
    <desc>Created with Sketch.</desc>
    <g id="Current" stroke="none" stroke-width="1" fill="none" fill-rule="evenodd">
        <g id="FMP---Wrench-Logo" transform="translate(-2427.000000, -1909.000000)">
            <g id="Inverted" transform="translate(0.000000, 1240.000000)">
                <g id="FMP-Green---Green-TLM" transform="translate(2427.000000, 669.000000)">
                    <path d="M360.698184,122.321429 L282.496251,122.321429 L282.496251,200 L234,200 L234,5 L368.573643,5 L368.573643,41.2946429 L282.496251,41.2946429 L282.496251,86.1607143 L360.698184,86.1607143 L360.698184,122.321429 Z M451.632996,5 L496.635659,140.669643 L541.499852,5 L605.472868,5 L605.472868,200 L556.731523,200 L556.731523,154.464286 L561.439493,61.25 L512.698148,200 L480.57317,200 L431.693355,61.1160714 L436.401326,154.464286 L436.401326,200 L387.79845,200 L387.79845,5 L451.632996,5 Z M684.295872,133.839286 L684.295872,200 L635.860465,200 L635.860465,5 L716.034173,5 C728.085589,5 738.940899,6.6517692 748.60043,9.95535714 C758.259961,13.2589451 766.447441,17.8571134 773.163115,23.75 C779.878789,29.6428866 785.030462,36.6294239 788.618288,44.7098214 C792.206114,52.790219 794,61.6070951 794,71.1607143 C794,80.6250473 792.206114,89.1963902 788.618288,96.875 C785.030462,104.55361 779.878789,111.138365 773.163115,116.629464 C766.447441,122.120563 758.259961,126.361592 748.60043,129.352679 C738.940899,132.343765 728.085589,133.839286 716.034173,133.839286 L684.295872,133.839286 Z M684.852713,97.3684211 L716.369021,97.3684211 C721.393384,97.3684211 725.709705,96.7153611 729.318112,95.4092216 C732.926519,94.1030821 735.895417,92.279018 738.224894,89.9369748 C740.554372,87.5949315 742.267198,84.8025372 743.363423,81.5597081 C744.459648,78.316879 745.007752,74.8038668 745.007752,71.0205661 C745.007752,66.9670297 744.459648,63.1162279 743.363423,59.4680451 C742.267198,55.8198623 740.554372,52.5996012 738.224894,49.807165 C735.895417,47.0147288 732.926519,44.7853172 729.318112,43.1188633 C725.709705,41.4524095 721.393384,40.619195 716.369021,40.619195 L684.852713,40.619195 L684.852713,97.3684211 Z" id="FMP" fill="#008D7F"></path>
                    <g id="Wrench-Green-TLM" fill-rule="nonzero">
                        <path d="M199.361022,102.818515 L199.361022,199.361022 L102.926561,199.361022 C93.0377666,199.677807 82.9336552,198.515903 72.8997977,195.7144 C19.8757468,180.909819 -11.1072551,125.923849 3.69732586,72.8997977 C18.5019069,19.8757468 73.4878772,-11.1072551 126.511928,3.69732586 C171.635261,16.2959868 200.796539,57.9938765 199.361022,102.818515 Z M72.8184874,143.961488 L51.9702452,155.998226 C59.8458686,162.685218 69.2587773,167.81653 79.862412,170.777118 C119.113982,181.736353 159.817882,158.800884 170.777118,119.549314 C181.736353,80.2977436 158.800884,39.5938435 119.549314,28.6346082 C80.2977436,17.6753729 39.5938435,40.6108419 28.6346082,79.862412 C25.729474,90.2674336 25.2061313,100.774511 26.7371323,110.802517 L47.9198542,98.5726673 C48.0841298,80.2159473 57.7857984,62.4516018 74.927096,52.792977 C92.3719029,42.9633335 113.00614,44.0736251 128.910263,53.9126782 L96.0965222,72.4022708 C90.8057929,75.3834435 87.9504968,78.0816232 85.9222983,81.2699377 C83.8940998,84.4582521 82.8995545,88.0203133 82.98277,91.7981451 C83.0659854,95.5759769 84.1105738,99.363024 87.0917465,104.653753 L88.9391613,107.932386 C91.920334,113.223116 94.6185138,116.078412 97.8068282,118.10661 C100.995143,120.134809 104.557204,121.129354 108.335036,121.046139 C112.112867,120.962923 115.899915,119.918335 121.190644,116.937162 L154.004384,98.4475695 C154.181594,117.148283 144.442205,135.373233 126.997398,145.202876 C109.480931,155.072898 88.7487764,153.912922 72.8184874,143.961488 Z" id="Combined-Shape" fill="#FFFFFF"></path>
                        <polygon id="Shape" fill="#008D7F" points="122.277123 63.8977636 142.335122 76.0655427 142.35242 99.5256766 122.311719 110.818031 102.25372 98.6502522 102.236422 75.1901183"></polygon>
                    </g>
                </g>
            </g>
        </g>
    </g>
</svg>